<svg width="80" height="79" viewBox="0 0 80 79" fill="none" xmlns="http://www.w3.org/2000/svg">
<path d="M42.8203 40.793L41.7402 41.873V43.9102H38.2129V40.2461L40.7148 37.7441H43.0527L44.2559 36.5547L44.2422 33.957L43.0664 32.7812L37.7344 32.7676L36.5449 33.957V35.6113H33.0176V32.1934L35.957 29.2539H44.8301L47.7695 32.1934V38.2227L45.1992 40.793H42.8203ZM38.2129 46.2344V49.7617H41.7539V46.2344H38.2129Z" fill="white"/>
<path d="M40 64.25C53.4619 64.25 64.375 53.169 64.375 39.5C64.375 25.831 53.4619 14.75 40 14.75C26.5381 14.75 15.625 25.831 15.625 39.5C15.625 53.169 26.5381 64.25 40 64.25Z" stroke="white" stroke-width="4" stroke-linecap="round" stroke-linejoin="round"/>
</svg>
