<?xml version="1.0" encoding="utf-8"?>
<!-- Generator: Adobe Illustrator 23.0.3, SVG Export Plug-In . SVG Version: 6.00 Build 0)  -->
<svg version="1.1" id="Capa_1" xmlns="http://www.w3.org/2000/svg" xmlns:xlink="http://www.w3.org/1999/xlink" x="0px" y="0px"
	 viewBox="0 0 1323.5 800" style="enable-background:new 0 0 1323.5 800;" xml:space="preserve">
<style type="text/css">
	.st0{fill:#FFFFFF;}
</style>
<g>
	<g>
		<path class="st0" d="M394.7,0H76.7C34.4,0,0,34.4,0,76.7v646.6C0,765.6,34.4,800,76.7,800h318.1c42.3,0,76.7-34.4,76.7-76.7V76.7
			C471.4,34.4,437,0,394.7,0z M442.9,723.3c0,26.5-21.6,48.1-48.1,48.1H76.7c-26.5,0-48.1-21.6-48.1-48.1V76.7
			c0-26.5,21.6-48.1,48.1-48.1h318.1c26.5,0,48.1,21.6,48.1,48.1V723.3z"/>
		<path class="st0" d="M242.9,85.7h42.9c7.9,0,14.3-6.4,14.3-14.3s-6.4-14.3-14.3-14.3h-42.9c-7.9,0-14.3,6.4-14.3,14.3
			S235,85.7,242.9,85.7z"/>
		<path class="st0" d="M185.7,85.7c3.7,0,7.4-1.6,10.1-4.1c2.6-2.7,4.1-6.4,4.1-10.1c0-3.7-1.6-7.4-4.1-10.1
			c-5.4-5.3-14.9-5.3-20.3,0c-2.6,2.7-4.1,6.3-4.1,10.1c0,3.7,1.6,7.4,4.1,10.1C178.3,84.1,182,85.7,185.7,85.7z"/>
		<circle class="st0" cx="235.7" cy="721.4" r="35.7"/>
		<path class="st0" d="M42.9,671.4h385.7V100H42.9V671.4z M275.6,161.3l14.3-14.3c5.6-5.6,14.6-5.6,20.2,0s5.6,14.6,0,20.2
			l-14.3,14.3c-2.8,2.8-6.4,4.2-10.1,4.2c-3.7,0-7.3-1.4-10.1-4.2C270,175.9,270,166.9,275.6,161.3z M267.3,189.9
			c2.6,2.7,4.1,6.4,4.1,10.1s-1.6,7.4-4.1,10.1c-2.7,2.6-6.4,4.1-10.1,4.1s-7.4-1.6-10.1-4.1c-2.6-2.7-4.1-6.3-4.1-10.1
			c0-3.9,1.6-7.4,4.1-10.1C252.3,184.6,262,184.6,267.3,189.9z M218.5,147c5.6-5.6,14.6-5.6,20.2,0c5.6,5.6,5.6,14.6,0,20.2
			l-42.9,42.9c-2.8,2.8-6.4,4.2-10.1,4.2s-7.3-1.4-10.1-4.2c-5.6-5.6-5.6-14.6,0-20.2L218.5,147z M89.9,204.2L147,147
			c5.6-5.6,14.6-5.6,20.2,0c5.6,5.6,5.6,14.6,0,20.2l-57.1,57.1c-2.8,2.8-6.4,4.2-10.1,4.2s-7.3-1.4-10.1-4.2
			C84.3,218.8,84.3,209.8,89.9,204.2z M171.4,228.6c0,3.7-1.6,7.4-4.1,10.1c-2.7,2.6-6.4,4.1-10.1,4.1c-3.7,0-7.4-1.6-10.1-4.1
			c-2.6-2.7-4.1-6.4-4.1-10.1s1.6-7.4,4.1-10.1c5.3-5.3,14.9-5.3,20.3,0C169.9,221.1,171.4,224.9,171.4,228.6z M89.9,275.6
			l28.6-28.6c5.6-5.6,14.6-5.6,20.2,0c5.6,5.6,5.6,14.6,0,20.2l-28.6,28.6c-2.8,2.8-6.4,4.2-10.1,4.2s-7.3-1.4-10.1-4.2
			C84.3,290.2,84.3,281.2,89.9,275.6z M89.9,347l128.6-128.6c5.6-5.6,14.6-5.6,20.2,0c5.6,5.6,5.6,14.6,0,20.2L110.1,367.2
			c-2.8,2.8-6.4,4.2-10.1,4.2s-7.3-1.4-10.1-4.2C84.3,361.7,84.3,352.6,89.9,347z"/>
	</g>
	<g>
		<path class="st0" d="M1323.5,723.3V405.3c0-42.3-34.4-76.7-76.7-76.7H600.2c-42.3,0-76.7,34.4-76.7,76.7v318.1
			c0,42.3,34.4,76.7,76.7,76.7h646.6C1289.1,800,1323.5,765.6,1323.5,723.3z M600.2,771.4c-26.5,0-48.1-21.6-48.1-48.1V405.3
			c0-26.5,21.6-48.1,48.1-48.1h646.6c26.5,0,48.1,21.6,48.1,48.1v318.1c0,26.5-21.6,48.1-48.1,48.1H600.2z"/>
		<path class="st0" d="M1237.8,571.4v42.9c0,7.9,6.4,14.3,14.3,14.3s14.3-6.4,14.3-14.3v-42.9c0-7.9-6.4-14.3-14.3-14.3
			S1237.8,563.5,1237.8,571.4z"/>
		<path class="st0" d="M1237.8,514.3c0,3.7,1.6,7.4,4.1,10.1c2.7,2.6,6.4,4.1,10.1,4.1c3.7,0,7.4-1.6,10.1-4.1
			c5.3-5.4,5.3-14.9,0-20.3c-2.7-2.6-6.3-4.1-10.1-4.1c-3.7,0-7.4,1.6-10.1,4.1C1239.4,506.9,1237.8,510.6,1237.8,514.3z"/>
		<circle class="st0" cx="602.1" cy="564.3" r="35.7"/>
		<path class="st0" d="M652.1,371.4v385.7h571.4V371.4H652.1z M1162.2,604.2l14.3,14.3c5.6,5.6,5.6,14.6,0,20.2s-14.6,5.6-20.2,0
			l-14.3-14.3c-2.8-2.8-4.2-6.4-4.2-10.1s1.4-7.3,4.2-10.1C1147.6,598.6,1156.6,598.6,1162.2,604.2z M1133.7,595.9
			c-2.7,2.6-6.4,4.1-10.1,4.1s-7.4-1.6-10.1-4.1c-2.6-2.7-4.1-6.4-4.1-10.1s1.6-7.4,4.1-10.1c2.7-2.6,6.3-4.1,10.1-4.1
			c3.9,0,7.4,1.6,10.1,4.1C1139,580.9,1139,590.6,1133.7,595.9z M1176.5,547c5.6,5.6,5.6,14.6,0,20.2s-14.6,5.6-20.2,0l-42.9-42.9
			c-2.8-2.8-4.2-6.4-4.2-10.1c0-3.7,1.4-7.3,4.2-10.1c5.6-5.6,14.6-5.6,20.2,0L1176.5,547z M1119.4,418.5l57.1,57.1
			c5.6,5.6,5.6,14.6,0,20.2s-14.6,5.6-20.2,0l-57.1-57.1c-2.8-2.8-4.2-6.4-4.2-10.1c0-3.7,1.4-7.3,4.2-10.1
			C1104.7,412.9,1113.8,412.9,1119.4,418.5z M1095,500c-3.7,0-7.4-1.6-10.1-4.1c-2.6-2.7-4.1-6.4-4.1-10.1c0-3.7,1.6-7.4,4.1-10.1
			c2.7-2.6,6.4-4.1,10.1-4.1c3.7,0,7.4,1.6,10.1,4.1c5.3,5.3,5.3,14.9,0,20.3C1102.4,498.4,1098.7,500,1095,500z M1047.9,418.5
			l28.6,28.6c5.6,5.6,5.6,14.6,0,20.2s-14.6,5.6-20.2,0l-28.6-28.6c-2.8-2.8-4.2-6.4-4.2-10.1c0-3.7,1.4-7.3,4.2-10.1
			C1033.3,412.9,1042.3,412.9,1047.9,418.5z M976.5,418.5L1105.1,547c5.6,5.6,5.6,14.6,0,20.2s-14.6,5.6-20.2,0L956.3,438.7
			c-2.8-2.8-4.2-6.4-4.2-10.1c0-3.7,1.4-7.3,4.2-10.1C961.9,412.9,970.9,412.9,976.5,418.5z"/>
	</g>
	<g>
		<path class="st0" d="M778.3,314.2L663.2,199l24.2-24.2l73.9,73.9V108.1c0-3-0.8-73.9-73.9-73.9h-17.1V0h17.1
			c47.1,0,73.1,22.4,86.6,41.2c19.9,27.6,21.4,58.1,21.4,66.8v140.7l73.9-73.9l24.2,24.2L778.3,314.2z"/>
	</g>
</g>
</svg>
