<svg width="18" height="18" viewBox="0 0 18 18" fill="none" xmlns="http://www.w3.org/2000/svg">
<path d="M3.75 15.75H14.25C15 15.75 15 15.75 15 15V7C15 6.75 15 6.75 14.25 6.75L3.75 6.75C3 6.75 3 6.75 3 7.5L3 15C3 15.75 3 15.75 3.75 15.75Z" stroke="white" stroke-width="2" stroke-linecap="round" stroke-linejoin="round"/>
<path d="M6.92308 6.75003L11.0769 6.75003C11.1725 6.75003 11.25 6.67254 11.25 6.57695V3.00001C11.25 3.00001 10.2426 3.00004 9 3.00004C7.75736 3.00004 9 3.00003 6.75 3.00001L6.75 6.57695C6.75 6.67254 6.82749 6.75003 6.92308 6.75003Z" stroke="white" stroke-width="2" stroke-linecap="round" stroke-linejoin="round"/>
</svg>
