<svg width="20" height="16" viewBox="0 0 20 16" fill="none" xmlns="http://www.w3.org/2000/svg">
<path d="M17.481 0.801519C17.481 0.801519 19.1497 0.167136 19.0106 1.70778C18.9643 2.34218 18.5471 4.56252 18.2227 6.96413L17.1102 14.0783C17.1102 14.0783 17.0176 15.1205 16.1832 15.3018C15.3489 15.483 14.0974 14.6674 13.8656 14.4861C13.6802 14.3502 10.3894 12.3111 9.23055 11.3142C8.90608 11.0423 8.53528 10.4986 9.27689 9.86417L14.1438 5.33287C14.7 4.7891 15.2562 3.52033 12.9386 5.06098L6.44949 9.36575C6.44949 9.36575 5.70788 9.81886 4.31737 9.41105L1.30453 8.50478C1.30453 8.50478 0.192104 7.82509 2.0925 7.14536C6.72762 5.01563 12.4288 2.8406 17.481 0.801519Z" fill="white"/>
</svg>
