<svg width="20" height="16" viewBox="0 0 20 16" fill="none" xmlns="http://www.w3.org/2000/svg">
<path fill-rule="evenodd" clip-rule="evenodd" d="M19.5999 2.04522C18.894 2.35879 18.1344 2.56998 17.3376 2.66533C18.151 2.17768 18.7756 1.4059 19.0693 0.486281C18.3091 0.93809 17.465 1.26511 16.5684 1.44238C15.8497 0.67699 14.8252 0.198303 13.6931 0.198303C11.5179 0.198303 9.75414 1.96202 9.75414 4.13723C9.75414 4.44569 9.78934 4.74647 9.85654 5.03509C6.58252 4.87126 3.68032 3.30273 1.73741 0.919533C1.39823 1.50125 1.20433 2.17769 1.20433 2.89956C1.20433 4.26587 1.89868 5.47154 2.95653 6.17806C2.31017 6.15758 1.70349 5.98031 1.17169 5.68529V5.73456C1.17169 7.64355 2.53032 9.23512 4.33115 9.59798C4.00093 9.68757 3.6528 9.73621 3.29378 9.73621C3.03972 9.73621 2.7927 9.71125 2.55207 9.66517C3.05316 11.2299 4.50842 12.369 6.23182 12.401C4.88408 13.4569 3.18563 14.0873 1.34 14.0873C1.0213 14.0873 0.707721 14.0687 0.399902 14.0316C2.14314 15.1489 4.2134 15.8017 6.43789 15.8017C13.6828 15.8017 17.6448 9.79956 17.6448 4.5948C17.6448 4.42393 17.6416 4.25371 17.6333 4.0854C18.4038 3.52864 19.0719 2.83492 19.5999 2.04522Z" fill="white"/>
</svg>
