<svg width="80" height="79" viewBox="0 0 80 79" fill="none" xmlns="http://www.w3.org/2000/svg">
<path d="M56.2498 63.375H23.7498C22.2541 63.375 21.0415 62.1624 21.0415 60.6667L21.0415 17.3333C21.0415 15.8376 22.2541 14.625 23.7498 14.625L44.2332 14.625C44.9876 14.625 45.7079 14.9397 46.2205 15.4933L58.2371 28.4712C58.7007 28.9719 58.9582 29.629 58.9582 30.3113L58.9582 60.6667C58.9582 62.1624 57.7456 63.375 56.2498 63.375Z" stroke="white" stroke-width="4" stroke-linecap="round" stroke-linejoin="round"/>
<path d="M31.875 52.5415H48.125" stroke="white" stroke-width="3" stroke-linecap="round" stroke-linejoin="round"/>
<path d="M31.875 44.4165H48.125" stroke="white" stroke-width="3" stroke-linecap="round" stroke-linejoin="round"/>
<path d="M58.9585 30.875L45.4168 30.875C43.9211 30.875 42.7085 29.6624 42.7085 28.1667L42.7085 14.625" stroke="white" stroke-width="4" stroke-linecap="round" stroke-linejoin="round"/>
</svg>
