<svg width="161" height="26" viewBox="0 0 161 26" fill="none" xmlns="http://www.w3.org/2000/svg">
<path d="M0.165039 0.597656H17.0986V4.88086L5.32812 21.2168H17.0986V25.5H0.165039V21.333L11.9355 4.88086H0.165039V0.597656ZM20.7842 0.597656H37.3691V4.88086H25.0674V10.9072H34.6631V15.1904H25.0674V21.2168H37.3691V25.5H20.7842V0.597656ZM41.0713 25.5V0.597656H47.3301L54.7012 18.7598V0.597656H58.9844V25.5H52.7588L45.3545 7.37109V25.5H41.0713ZM73.4111 21.9307V4.16699L76.9805 0.597656H87.7549L91.3242 4.16699V8.68262H87.041V6.3252L85.5967 4.86426H79.1553L77.7109 6.3252V19.7725L79.1387 21.2168H85.5967L87.041 19.7725V16.3525H83.6875V12.0693H91.3242V21.9307L87.7549 25.5H76.9805L73.4111 21.9307ZM93.8975 25.5L101.318 0.597656H106.664L114.068 25.5H109.619L107.959 20.0049H99.9902L98.3633 25.5H93.8975ZM101.219 15.7217H106.73L103.975 6.47461L101.219 15.7217ZM116.675 0.597656H122.801L128.611 17.166L134.422 0.597656H140.564L140.548 25.5H136.265V7.75293L130.471 25.5H126.769L120.958 7.76953V25.5H116.675V0.597656ZM144.233 0.597656H160.818V4.88086H148.517V10.9072H158.112V15.1904H148.517V21.2168H160.818V25.5H144.233V0.597656Z" fill="white"/>
</svg>
