<svg width="161" height="26" viewBox="0 0 161 26" fill="none" xmlns="http://www.w3.org/2000/svg">
<path d="M0.165039 0.597656V-0.402344H-0.834961V0.597656H0.165039ZM17.0986 0.597656H18.0986V-0.402344H17.0986V0.597656ZM17.0986 4.88086L17.91 5.46545L18.0986 5.2036V4.88086H17.0986ZM5.32812 21.2168L4.51679 20.6322L3.37505 22.2168H5.32812V21.2168ZM17.0986 21.2168H18.0986V20.2168H17.0986V21.2168ZM17.0986 25.5V26.5H18.0986V25.5H17.0986ZM0.165039 25.5H-0.834961V26.5H0.165039V25.5ZM0.165039 21.333L-0.648251 20.7511L-0.834961 21.0121V21.333H0.165039ZM11.9355 4.88086L12.7488 5.46272L13.8806 3.88086H11.9355V4.88086ZM0.165039 4.88086H-0.834961V5.88086H0.165039V4.88086ZM0.165039 1.59766H17.0986V-0.402344H0.165039V1.59766ZM16.0986 0.597656V4.88086H18.0986V0.597656H16.0986ZM16.2873 4.29627L4.51679 20.6322L6.13946 21.8014L17.91 5.46545L16.2873 4.29627ZM5.32812 22.2168H17.0986V20.2168H5.32812V22.2168ZM16.0986 21.2168V25.5H18.0986V21.2168H16.0986ZM17.0986 24.5H0.165039V26.5H17.0986V24.5ZM1.16504 25.5V21.333H-0.834961V25.5H1.16504ZM0.978329 21.9149L12.7488 5.46272L11.1223 4.299L-0.648251 20.7511L0.978329 21.9149ZM11.9355 3.88086H0.165039V5.88086H11.9355V3.88086ZM1.16504 4.88086V0.597656H-0.834961V4.88086H1.16504ZM20.7842 0.597656V-0.402344H19.7842V0.597656H20.7842ZM37.3691 0.597656H38.3691V-0.402344H37.3691V0.597656ZM37.3691 4.88086V5.88086H38.3691V4.88086H37.3691ZM25.0674 4.88086V3.88086H24.0674V4.88086H25.0674ZM25.0674 10.9072H24.0674V11.9072H25.0674V10.9072ZM34.6631 10.9072H35.6631V9.90723H34.6631V10.9072ZM34.6631 15.1904V16.1904H35.6631V15.1904H34.6631ZM25.0674 15.1904V14.1904H24.0674V15.1904H25.0674ZM25.0674 21.2168H24.0674V22.2168H25.0674V21.2168ZM37.3691 21.2168H38.3691V20.2168H37.3691V21.2168ZM37.3691 25.5V26.5H38.3691V25.5H37.3691ZM20.7842 25.5H19.7842V26.5H20.7842V25.5ZM20.7842 1.59766H37.3691V-0.402344H20.7842V1.59766ZM36.3691 0.597656V4.88086H38.3691V0.597656H36.3691ZM37.3691 3.88086H25.0674V5.88086H37.3691V3.88086ZM24.0674 4.88086V10.9072H26.0674V4.88086H24.0674ZM25.0674 11.9072H34.6631V9.90723H25.0674V11.9072ZM33.6631 10.9072V15.1904H35.6631V10.9072H33.6631ZM34.6631 14.1904H25.0674V16.1904H34.6631V14.1904ZM24.0674 15.1904V21.2168H26.0674V15.1904H24.0674ZM25.0674 22.2168H37.3691V20.2168H25.0674V22.2168ZM36.3691 21.2168V25.5H38.3691V21.2168H36.3691ZM37.3691 24.5H20.7842V26.5H37.3691V24.5ZM21.7842 25.5V0.597656H19.7842V25.5H21.7842ZM41.0713 25.5H40.0713V26.5H41.0713V25.5ZM41.0713 0.597656V-0.402344H40.0713V0.597656H41.0713ZM47.3301 0.597656L48.2567 0.221597L48.0034 -0.402344H47.3301V0.597656ZM54.7012 18.7598L53.7746 19.1358L55.7012 18.7598H54.7012ZM54.7012 0.597656V-0.402344H53.7012V0.597656H54.7012ZM58.9844 0.597656H59.9844V-0.402344H58.9844V0.597656ZM58.9844 25.5V26.5H59.9844V25.5H58.9844ZM52.7588 25.5L51.833 25.8781L52.087 26.5H52.7588V25.5ZM45.3545 7.37109L46.2803 6.99299L44.3545 7.37109H45.3545ZM45.3545 25.5V26.5H46.3545V25.5H45.3545ZM42.0713 25.5V0.597656H40.0713V25.5H42.0713ZM41.0713 1.59766H47.3301V-0.402344H41.0713V1.59766ZM46.4035 0.973715L53.7746 19.1358L55.6278 18.3837L48.2567 0.221597L46.4035 0.973715ZM55.7012 18.7598V0.597656H53.7012V18.7598H55.7012ZM54.7012 1.59766H58.9844V-0.402344H54.7012V1.59766ZM57.9844 0.597656V25.5H59.9844V0.597656H57.9844ZM58.9844 24.5H52.7588V26.5H58.9844V24.5ZM53.6846 25.1219L46.2803 6.99299L44.4287 7.7492L51.833 25.8781L53.6846 25.1219ZM44.3545 7.37109V25.5H46.3545V7.37109H44.3545ZM45.3545 24.5H41.0713V26.5H45.3545V24.5ZM73.4111 21.9307H72.4111V22.3449L72.704 22.6378L73.4111 21.9307ZM73.4111 4.16699L72.704 3.45989L72.4111 3.75278V4.16699H73.4111ZM76.9805 0.597656V-0.402344H76.5663L76.2734 -0.10945L76.9805 0.597656ZM87.7549 0.597656L88.462 -0.10945L88.1691 -0.402344H87.7549V0.597656ZM91.3242 4.16699H92.3242V3.75278L92.0313 3.45989L91.3242 4.16699ZM91.3242 8.68262V9.68262H92.3242V8.68262H91.3242ZM87.041 8.68262H86.041V9.68262H87.041V8.68262ZM87.041 6.3252H88.041V5.91432L87.7522 5.62214L87.041 6.3252ZM85.5967 4.86426L86.3078 4.1612L86.0142 3.86426H85.5967V4.86426ZM79.1553 4.86426V3.86426H78.7377L78.4441 4.1612L79.1553 4.86426ZM77.7109 6.3252L76.9998 5.62214L76.7109 5.91432V6.3252H77.7109ZM77.7109 19.7725H76.7109V20.1833L76.9998 20.4755L77.7109 19.7725ZM79.1387 21.2168L78.4275 21.9198L78.7211 22.2168H79.1387V21.2168ZM85.5967 21.2168V22.2168H86.0109L86.3038 21.9239L85.5967 21.2168ZM87.041 19.7725L87.7481 20.4796L88.041 20.1867V19.7725H87.041ZM87.041 16.3525H88.041V15.3525H87.041V16.3525ZM83.6875 16.3525H82.6875V17.3525H83.6875V16.3525ZM83.6875 12.0693V11.0693H82.6875V12.0693H83.6875ZM91.3242 12.0693H92.3242V11.0693H91.3242V12.0693ZM91.3242 21.9307L92.0313 22.6378L92.3242 22.3449V21.9307H91.3242ZM87.7549 25.5V26.5H88.1691L88.462 26.2071L87.7549 25.5ZM76.9805 25.5L76.2734 26.2071L76.5663 26.5H76.9805V25.5ZM74.4111 21.9307V4.16699H72.4111V21.9307H74.4111ZM74.1182 4.8741L77.6876 1.30476L76.2734 -0.10945L72.704 3.45989L74.1182 4.8741ZM76.9805 1.59766H87.7549V-0.402344H76.9805V1.59766ZM87.0478 1.30476L90.6171 4.8741L92.0313 3.45989L88.462 -0.10945L87.0478 1.30476ZM90.3242 4.16699V8.68262H92.3242V4.16699H90.3242ZM91.3242 7.68262H87.041V9.68262H91.3242V7.68262ZM88.041 8.68262V6.3252H86.041V8.68262H88.041ZM87.7522 5.62214L86.3078 4.1612L84.8855 5.56731L86.3299 7.02825L87.7522 5.62214ZM85.5967 3.86426H79.1553V5.86426H85.5967V3.86426ZM78.4441 4.1612L76.9998 5.62214L78.4221 7.02825L79.8664 5.56731L78.4441 4.1612ZM76.7109 6.3252V19.7725H78.7109V6.3252H76.7109ZM76.9998 20.4755L78.4275 21.9198L79.8499 20.5138L78.4221 19.0695L76.9998 20.4755ZM79.1387 22.2168H85.5967V20.2168H79.1387V22.2168ZM86.3038 21.9239L87.7481 20.4796L86.3339 19.0654L84.8896 20.5097L86.3038 21.9239ZM88.041 19.7725V16.3525H86.041V19.7725H88.041ZM87.041 15.3525H83.6875V17.3525H87.041V15.3525ZM84.6875 16.3525V12.0693H82.6875V16.3525H84.6875ZM83.6875 13.0693H91.3242V11.0693H83.6875V13.0693ZM90.3242 12.0693V21.9307H92.3242V12.0693H90.3242ZM90.6171 21.2236L87.0478 24.7929L88.462 26.2071L92.0313 22.6378L90.6171 21.2236ZM87.7549 24.5H76.9805V26.5H87.7549V24.5ZM77.6876 24.7929L74.1182 21.2236L72.704 22.6378L76.2734 26.2071L77.6876 24.7929ZM93.8975 25.5L92.9391 25.2144L92.556 26.5H93.8975V25.5ZM101.318 0.597656V-0.402344H100.573L100.36 0.312068L101.318 0.597656ZM106.664 0.597656L107.623 0.312654L107.41 -0.402344H106.664V0.597656ZM114.068 25.5V26.5H115.409L115.027 25.215L114.068 25.5ZM109.619 25.5L108.662 25.7892L108.877 26.5H109.619V25.5ZM107.959 20.0049L108.916 19.7157L108.702 19.0049H107.959V20.0049ZM99.9902 20.0049V19.0049H99.2434L99.0314 19.721L99.9902 20.0049ZM98.3633 25.5V26.5H99.1101L99.3221 25.7839L98.3633 25.5ZM101.219 15.7217L100.26 15.4361L99.8773 16.7217H101.219V15.7217ZM106.73 15.7217V16.7217H108.072L107.689 15.4361L106.73 15.7217ZM103.975 6.47461L104.933 6.189L103.975 2.97334L103.016 6.189L103.975 6.47461ZM94.8558 25.7856L102.277 0.883245L100.36 0.312068L92.9391 25.2144L94.8558 25.7856ZM101.318 1.59766H106.664V-0.402344H101.318V1.59766ZM105.706 0.882658L113.11 25.785L115.027 25.215L107.623 0.312654L105.706 0.882658ZM114.068 24.5H109.619V26.5H114.068V24.5ZM110.576 25.2108L108.916 19.7157L107.002 20.2941L108.662 25.7892L110.576 25.2108ZM107.959 19.0049H99.9902V21.0049H107.959V19.0049ZM99.0314 19.721L97.4044 25.2161L99.3221 25.7839L100.949 20.2888L99.0314 19.721ZM98.3633 24.5H93.8975V26.5H98.3633V24.5ZM101.219 16.7217H106.73V14.7217H101.219V16.7217ZM107.689 15.4361L104.933 6.189L103.016 6.76022L105.772 16.0073L107.689 15.4361ZM103.016 6.189L100.26 15.4361L102.177 16.0073L104.933 6.76022L103.016 6.189ZM116.675 0.597656V-0.402344H115.675V0.597656H116.675ZM122.801 0.597656L123.744 0.266716L123.51 -0.402344H122.801V0.597656ZM128.611 17.166L127.668 17.497L128.611 20.1877L129.555 17.497L128.611 17.166ZM134.422 0.597656V-0.402344H133.713L133.478 0.266716L134.422 0.597656ZM140.564 0.597656L141.564 0.598323L141.565 -0.402344H140.564V0.597656ZM140.548 25.5V26.5H141.547L141.548 25.5007L140.548 25.5ZM136.265 25.5H135.265V26.5H136.265V25.5ZM136.265 7.75293H137.265L135.314 7.44258L136.265 7.75293ZM130.471 25.5V26.5H131.196L131.421 25.8104L130.471 25.5ZM126.769 25.5L125.818 25.8114L126.044 26.5H126.769V25.5ZM120.958 7.76953L121.908 7.45811L119.958 7.76953H120.958ZM120.958 25.5V26.5H121.958V25.5H120.958ZM116.675 25.5H115.675V26.5H116.675V25.5ZM116.675 1.59766H122.801V-0.402344H116.675V1.59766ZM121.857 0.928596L127.668 17.497L129.555 16.8351L123.744 0.266716L121.857 0.928596ZM129.555 17.497L135.366 0.928596L133.478 0.266716L127.668 16.8351L129.555 17.497ZM134.422 1.59766H140.564V-0.402344H134.422V1.59766ZM139.564 0.59699L139.548 25.4993L141.548 25.5007L141.564 0.598323L139.564 0.59699ZM140.548 24.5H136.265V26.5H140.548V24.5ZM137.265 25.5V7.75293H135.265V25.5H137.265ZM135.314 7.44258L129.52 25.1896L131.421 25.8104L137.215 8.06328L135.314 7.44258ZM130.471 24.5H126.769V26.5H130.471V24.5ZM127.719 25.1886L121.908 7.45811L120.008 8.08095L125.818 25.8114L127.719 25.1886ZM119.958 7.76953V25.5H121.958V7.76953H119.958ZM120.958 24.5H116.675V26.5H120.958V24.5ZM117.675 25.5V0.597656H115.675V25.5H117.675ZM144.233 0.597656V-0.402344H143.233V0.597656H144.233ZM160.818 0.597656H161.818V-0.402344H160.818V0.597656ZM160.818 4.88086V5.88086H161.818V4.88086H160.818ZM148.517 4.88086V3.88086H147.517V4.88086H148.517ZM148.517 10.9072H147.517V11.9072H148.517V10.9072ZM158.112 10.9072H159.112V9.90723H158.112V10.9072ZM158.112 15.1904V16.1904H159.112V15.1904H158.112ZM148.517 15.1904V14.1904H147.517V15.1904H148.517ZM148.517 21.2168H147.517V22.2168H148.517V21.2168ZM160.818 21.2168H161.818V20.2168H160.818V21.2168ZM160.818 25.5V26.5H161.818V25.5H160.818ZM144.233 25.5H143.233V26.5H144.233V25.5ZM144.233 1.59766H160.818V-0.402344H144.233V1.59766ZM159.818 0.597656V4.88086H161.818V0.597656H159.818ZM160.818 3.88086H148.517V5.88086H160.818V3.88086ZM147.517 4.88086V10.9072H149.517V4.88086H147.517ZM148.517 11.9072H158.112V9.90723H148.517V11.9072ZM157.112 10.9072V15.1904H159.112V10.9072H157.112ZM158.112 14.1904H148.517V16.1904H158.112V14.1904ZM147.517 15.1904V21.2168H149.517V15.1904H147.517ZM148.517 22.2168H160.818V20.2168H148.517V22.2168ZM159.818 21.2168V25.5H161.818V21.2168H159.818ZM160.818 24.5H144.233V26.5H160.818V24.5ZM145.233 25.5V0.597656H143.233V25.5H145.233Z" fill="white"/>
</svg>
